<?xml version="1.0" standalone="no"?>
<!DOCTYPE svg PUBLIC "-//W3C//DTD SVG 20010904//EN"
 "http://www.w3.org/TR/2001/REC-SVG-20010904/DTD/svg10.dtd">
<svg version="1.0" xmlns="http://www.w3.org/2000/svg"
 width="421.000000pt" height="298.000000pt" viewBox="0 0 421.000000 298.000000"
 preserveAspectRatio="xMidYMid meet">
<metadata>
Created by potrace 1.16, written by Peter Selinger 2001-2019
</metadata>
<g transform="translate(0.000000,298.000000) scale(0.100000,-0.100000)"
fill="#000000" stroke="none">
<path d="M147 2833 c-4 -3 -7 -615 -7 -1360 l0 -1353 1945 0 1945 0 -1 33 c-2
30 -2 30 -6 5 l-4 -28 -1695 0 c-1669 0 -1694 0 -1694 19 0 11 5 32 12 48 6
15 10 34 9 41 -2 16 16 16 21 0 3 -7 7 -2 10 10 4 12 2 20 -3 16 -5 -3 -9 6
-9 20 0 18 -5 23 -17 21 -10 -2 -22 -4 -26 -4 -5 -1 -7 -9 -5 -18 1 -10 -1
-24 -6 -32 -7 -10 -6 -12 4 -6 10 6 11 0 6 -30 -17 -90 -2 -84 -205 -85 l-180
0 4 37 c7 73 8 233 2 240 -8 7 -9 -4 -9 -94 -1 -35 -4 -63 -7 -63 -3 0 -4 -27
-3 -60 l4 -60 -41 0 -41 0 2 170 c1 110 5 170 12 170 6 0 5 5 -2 12 -7 7 -12
35 -12 64 0 48 3 54 43 91 24 22 50 44 58 49 9 5 21 18 27 29 11 20 11 20 12
-1 0 -11 -4 -24 -9 -30 -17 -19 -31 -105 -29 -186 l1 -83 7 85 c4 47 16 112
27 145 12 33 24 77 28 99 6 37 6 38 -15 23 -11 -8 -46 -42 -76 -76 -31 -33
-60 -61 -65 -61 -5 0 -9 29 -8 65 2 51 5 65 17 65 13 0 13 2 -1 18 -13 14 -15
47 -14 215 0 108 5 197 9 197 4 0 7 3 7 8 -1 4 -1 14 0 22 1 13 2 13 11 0 8
-12 10 -9 10 12 0 15 5 30 11 34 8 4 7 9 -2 15 -21 12 -4 21 33 16 30 -4 31
-5 11 -12 -25 -8 -29 -20 -11 -31 7 -4 8 -3 4 4 -4 8 3 10 25 7 24 -3 29 0 25
11 -4 11 5 14 49 12 31 -2 55 -7 54 -13 0 -5 -6 -9 -14 -7 -8 2 -13 -5 -12
-18 1 -19 17 -30 17 -11 0 5 7 12 16 15 10 4 13 2 8 -6 -5 -7 -9 -29 -10 -50
-2 -34 0 -37 27 -36 21 1 29 6 29 19 0 21 16 34 25 19 3 -5 -7 -23 -23 -39
-23 -25 -31 -28 -42 -18 -12 10 -12 9 -2 -5 15 -20 33 -18 56 5 19 18 27 22
24 10 0 -5 2 -16 6 -25 10 -21 31 -24 23 -4 -4 9 3 16 19 20 23 6 25 26 3 26
-6 0 -7 -5 -4 -10 3 -6 -1 -10 -10 -10 -11 0 -15 5 -11 15 3 8 2 15 -2 15 -13
0 -11 58 3 70 22 18 37 1 33 -36 -3 -27 0 -34 13 -34 9 0 28 -9 43 -21 14 -11
30 -18 36 -14 5 3 7 0 4 -9 -4 -12 5 -14 53 -11 32 2 82 8 111 13 28 4 82 5
119 0 38 -4 77 -5 88 -1 17 5 18 4 6 -11 -11 -13 -11 -16 1 -16 7 0 15 11 16
25 1 16 -3 25 -13 25 -8 0 -19 8 -24 18 -6 9 -11 12 -11 6 0 -5 5 -15 12 -22
18 -18 8 -20 -74 -9 -81 11 -98 25 -54 45 17 8 27 7 36 -1 10 -9 11 -9 6 1 -4
7 -2 20 6 29 7 10 -12 3 -45 -15 -31 -17 -63 -29 -71 -26 -8 3 -17 1 -21 -5
-3 -6 0 -11 7 -11 20 -1 -52 -30 -73 -30 -11 0 -19 6 -19 14 0 9 -17 16 -45
20 -68 11 -90 26 -91 63 -2 27 2 32 25 36 23 4 22 4 -6 6 -18 0 -33 6 -33 12
0 8 -5 8 -15 -1 -10 -9 -15 -9 -15 -1 0 6 -5 11 -11 11 -5 0 -7 -4 -4 -10 8
-13 8 -13 -40 4 -40 14 -40 15 -15 25 18 7 20 10 8 10 -20 1 -23 18 -8 41 8
13 11 12 25 -5 8 -11 20 -28 26 -38 10 -18 34 -19 34 -1 0 5 4 16 9 24 7 10 3
10 -11 -3 -19 -16 -20 -16 -35 0 -27 32 -29 42 -15 70 8 15 17 40 21 55 5 22
3 27 -13 25 -14 -1 -18 -7 -15 -25 4 -22 -36 -91 -58 -100 -4 -2 -4 -10 -1
-18 3 -8 -1 -14 -11 -14 -9 0 -15 -3 -15 -7 4 -24 -4 -28 -43 -24 -33 3 -38 6
-23 11 11 5 -15 6 -57 4 l-78 -3 0 49 c0 28 4 50 8 50 5 0 9 6 10 13 0 6 12
44 26 82 14 39 25 79 26 90 0 22 35 78 86 139 19 21 31 42 29 47 -3 4 3 10 12
12 16 4 17 5 1 6 -10 0 -23 -9 -29 -21 -7 -13 -31 -45 -54 -71 -28 -33 -47
-67 -58 -107 -19 -66 -38 -90 -73 -90 l-25 0 2 458 c0 251 3 461 6 466 3 5 12
-4 19 -20 7 -16 13 -22 13 -14 1 8 -8 32 -19 53 -26 48 -29 210 -5 245 14 20
14 21 0 16 -8 -4 -15 -1 -15 6 0 8 10 11 28 8 15 -3 41 -2 57 2 24 6 19 8 -27
9 l-58 1 0 40 0 40 1943 3 1942 2 -1941 3 c-1067 1 -1944 -1 -1947 -5z"/>
<path d="M3827 2801 c-3 -11 -17 -21 -40 -25 -37 -7 -47 -28 -47 -104 0 -37
12 -52 98 -117 26 -20 47 -44 47 -53 0 -8 7 -17 15 -19 13 -4 13 -3 0 6 -9 7
-11 11 -3 11 7 0 16 -6 20 -13 4 -8 19 -17 32 -20 23 -6 22 -4 -7 23 -30 27
-43 48 -22 35 5 -3 18 -1 27 4 20 12 16 13 -45 16 -42 2 -54 9 -119 69 -24 22
-33 39 -33 62 0 48 19 82 53 93 31 11 51 6 41 -10 -3 -6 1 -16 10 -22 14 -11
14 -18 -4 -76 -11 -36 -18 -67 -16 -69 11 -10 45 61 48 100 2 36 6 44 19 41
23 -6 29 8 22 50 -6 39 -33 53 -33 18 0 -11 -5 -23 -12 -27 -6 -4 -8 -3 -4 4
6 10 -18 42 -34 42 -4 0 -10 -8 -13 -19z"/>
<path d="M925 2700 c3 -5 0 -10 -7 -10 -10 0 -10 -2 1 -9 9 -6 11 -15 6 -27
-5 -11 -9 -22 -9 -26 -1 -3 -4 -10 -8 -14 -5 -4 -8 -17 -8 -28 0 -17 -2 -18
-10 -6 -8 12 -10 9 -8 -10 2 -16 -2 -24 -10 -22 -8 1 -11 -2 -7 -8 9 -15 -44
-82 -57 -74 -6 4 -8 2 -4 -4 3 -6 -7 -30 -23 -54 -15 -24 -32 -53 -36 -66 -4
-13 -13 -21 -23 -20 -11 2 -17 -4 -18 -18 -2 -28 -12 -44 -28 -44 -7 0 -21
-10 -32 -22 -15 -19 -16 -20 -1 -9 14 11 17 11 17 -1 0 -19 -119 -208 -131
-208 -5 0 -9 -5 -9 -11 0 -6 -18 -33 -40 -60 -34 -40 -59 -89 -45 -89 2 0 24
30 50 68 25 37 61 86 79 109 29 36 35 39 39 22 10 -38 44 -21 51 26 1 9 9 20
16 25 10 6 7 10 -13 15 -32 9 -34 16 -7 33 12 7 18 17 15 22 -3 6 1 10 9 10 8
0 18 -4 21 -10 3 -5 0 -10 -8 -10 -8 0 -20 -6 -26 -14 -9 -11 -8 -15 5 -20 20
-8 34 1 34 20 0 8 5 12 10 9 6 -3 10 -1 10 5 0 6 -11 16 -25 22 -24 11 -24 12
-9 29 9 10 21 16 25 13 5 -3 9 2 9 10 0 9 6 16 14 16 8 0 16 7 20 15 3 8 1 15
-4 15 -15 0 12 57 59 125 23 33 56 81 74 107 18 26 38 48 45 48 6 0 12 4 12
10 0 23 42 120 51 115 5 -4 9 -1 9 4 0 6 -18 11 -41 11 -24 0 -38 -4 -34 -10z"/>
<path d="M1987 2462 c8 -5 -11 -13 -47 -20 -33 -7 -60 -16 -60 -20 0 -4 7 -16
15 -26 8 -11 15 -23 15 -28 0 -14 -45 -9 -69 9 -28 19 -99 34 -107 22 -3 -5
-21 -9 -41 -9 -19 0 -47 -8 -61 -19 -49 -34 -76 -34 -107 -1 -23 24 -37 30
-72 30 -30 0 -43 4 -43 14 0 8 6 16 13 19 6 2 9 8 5 12 -4 4 -14 3 -21 -3 -8
-7 -17 -9 -20 -5 -4 3 -7 -1 -7 -9 0 -9 6 -18 13 -21 6 -2 -37 -7 -96 -11 -60
-4 -111 -5 -115 -2 -3 3 5 6 17 6 14 0 21 5 18 13 -2 6 -15 11 -28 9 -13 -2
-33 5 -44 15 -22 20 -115 29 -95 9 5 -5 10 -19 10 -30 1 -19 2 -19 15 4 10 17
14 20 15 9 0 -12 7 -15 28 -12 25 4 25 3 7 -8 -11 -7 -37 -25 -58 -42 -21 -16
-41 -27 -44 -23 -4 3 -1 6 6 6 7 0 9 5 5 12 -4 6 -3 8 4 4 15 -9 27 14 13 25
-6 5 -9 6 -7 3 3 -3 -6 -16 -19 -28 -19 -18 -22 -25 -12 -36 7 -7 7 -10 1 -7
-11 6 -50 -32 -46 -45 1 -5 -7 -8 -17 -8 -39 0 -34 -32 6 -44 16 -5 20 -11 13
-19 -45 -53 -59 -74 -85 -125 -17 -31 -33 -58 -37 -60 -5 -2 -8 -10 -8 -17 0
-8 -9 -19 -20 -25 -16 -9 -18 -15 -10 -31 6 -11 16 -16 22 -13 7 5 9 2 5 -8
-3 -9 1 -25 8 -35 24 -35 13 -65 -44 -118 -84 -77 -110 -108 -111 -130 0 -19
6 -20 117 -19 84 1 131 6 163 18 25 10 88 31 140 48 98 32 106 35 99 42 -6 6
-151 -36 -204 -59 -22 -9 -61 -20 -87 -24 -40 -7 -45 -6 -41 8 5 14 4 14 -8
-1 -12 -14 -26 -15 -86 -11 l-72 6 27 38 c15 21 32 39 37 39 6 0 28 18 50 40
21 21 42 37 47 34 4 -3 8 -1 8 5 0 6 8 7 17 4 13 -5 15 -2 10 11 -4 10 -7 22
-7 28 0 6 -7 4 -16 -3 -15 -13 -17 -11 -12 19 2 17 1 32 -3 32 -12 0 -20 33
-10 43 5 5 7 15 5 22 -6 14 40 110 62 133 8 7 14 18 14 24 0 20 63 96 75 92 7
-3 16 0 21 7 5 9 2 10 -9 6 -24 -9 -33 30 -11 54 24 27 29 17 9 -18 l-17 -28
26 30 27 30 19 -24 c11 -13 20 -20 20 -16 0 4 6 3 13 -2 17 -14 49 -24 43 -14
-3 5 -19 14 -36 21 -41 17 -41 44 1 35 29 -7 30 -6 14 12 -19 22 -70 20 -61
-2 3 -8 -2 -11 -15 -8 -28 8 -24 18 24 57 45 37 87 40 87 7 0 -9 3 -12 8 -6 4
6 29 10 55 10 27 0 51 3 53 7 3 4 49 7 103 7 96 0 99 -1 126 -29 35 -36 49
-37 109 -5 25 13 48 24 51 24 3 -1 29 2 59 5 40 5 62 3 89 -10 20 -10 34 -21
32 -24 -3 -4 -25 -11 -50 -14 -24 -4 -48 -12 -51 -18 -5 -8 1 -9 17 -4 13 4
48 13 77 22 30 8 62 19 72 24 14 7 32 6 65 -6 26 -8 55 -16 66 -17 10 -1 19
-8 19 -17 0 -11 2 -12 8 -2 12 18 54 1 105 -43 31 -27 50 -35 78 -35 33 0 38
-3 42 -27 2 -17 4 -11 5 17 0 25 -2 39 -5 33 -10 -26 -69 -14 -119 25 -45 34
-192 92 -235 92 -16 0 -29 19 -29 41 0 13 38 11 42 -3 2 -6 12 -12 22 -14 10
-1 15 3 13 9 -3 7 -10 11 -16 10 -6 -2 -11 2 -11 7 0 6 6 10 13 11 6 0 20 2
30 4 10 2 41 -3 70 -10 175 -47 264 -65 312 -65 50 0 56 -2 70 -30 23 -44 19
-73 -11 -91 l-27 -16 41 -23 c36 -20 41 -27 35 -49 -3 -14 -15 -32 -25 -39
-10 -7 -18 -18 -18 -24 0 -6 9 -3 19 6 19 17 21 17 48 -9 24 -23 24 -25 6 -16
-19 10 -23 9 -23 -4 0 -12 8 -16 28 -14 15 1 42 -1 60 -6 29 -7 31 -9 15 -21
-17 -12 -17 -13 2 -10 11 2 26 -1 32 -6 7 -6 20 -8 28 -4 9 3 18 -1 21 -9 4
-8 14 -15 24 -15 9 0 27 -9 40 -20 25 -21 35 -26 25 -11 -10 17 12 21 25 6 7
-8 20 -16 29 -16 9 -1 0 -4 -19 -8 -41 -7 -52 -41 -24 -72 29 -33 27 -49 -7
-42 -24 4 -29 2 -29 -13 0 -11 -7 -32 -15 -48 -25 -47 -13 -61 60 -72 37 -5
72 -6 81 -1 9 5 21 4 32 -5 15 -12 16 -11 3 5 -11 14 -11 17 1 17 8 0 22 -8
32 -19 11 -12 37 -20 77 -25 33 -3 69 -11 80 -17 20 -10 20 -11 2 -31 -16 -19
-16 -21 -1 -15 9 3 27 -2 41 -14 29 -22 60 -25 75 -6 6 6 33 13 61 15 50 3 51
2 51 -25 0 -20 3 -24 9 -14 9 14 19 6 87 -70 8 -9 13 -29 10 -50 -3 -28 -8
-34 -25 -32 -11 2 -21 -2 -21 -7 0 -6 10 -10 22 -10 16 0 19 -3 11 -11 -6 -6
-9 -18 -6 -27 5 -11 3 -13 -7 -7 -8 5 -4 -5 8 -22 26 -36 29 -51 7 -33 -13 11
-14 10 -10 -2 4 -9 -1 -18 -9 -21 -9 -4 -16 -3 -16 2 0 5 -11 12 -25 15 -14 4
-25 11 -25 16 0 13 -36 13 -61 0 -25 -14 -24 -43 3 -55 41 -19 56 -99 59 -305
1 -102 4 -172 6 -155 3 16 10 33 16 37 9 6 9 8 -1 8 -9 0 -12 22 -11 86 1 50
5 81 10 73 4 -7 11 -10 15 -6 4 4 2 13 -4 19 -7 7 -12 38 -12 69 0 32 -5 61
-11 65 -7 4 -9 23 -5 50 4 32 2 42 -7 39 -6 -2 -22 9 -35 26 -21 26 -22 30 -6
36 11 4 22 0 30 -12 8 -10 14 -15 14 -9 1 5 12 -4 25 -21 14 -16 25 -24 25
-17 0 7 14 12 36 12 34 0 35 -1 30 -31 -2 -17 0 -43 5 -57 7 -19 6 -29 -6 -42
-8 -9 -15 -22 -15 -29 0 -6 -9 -31 -20 -53 -22 -46 -25 -68 -10 -68 6 0 10 8
10 19 0 10 9 30 20 44 15 18 17 27 8 30 -10 4 -10 6 0 6 7 1 10 6 7 11 -3 6 1
13 9 16 9 3 13 10 10 15 -3 5 1 6 9 3 10 -3 13 4 13 30 -1 24 -4 31 -12 25 -8
-6 -11 -2 -9 13 1 13 3 31 4 40 0 9 7 23 14 30 11 11 16 35 20 86 0 6 4 12 9
12 5 0 6 5 3 10 -3 6 -1 10 5 10 6 0 8 5 5 10 -4 6 5 10 19 10 14 0 26 5 26
10 0 6 -5 10 -10 10 -10 0 -10 21 1 30 4 3 9 28 13 56 5 46 4 52 -14 57 -13 3
-18 1 -13 -6 11 -17 11 -91 0 -104 -5 -7 -6 -13 -3 -13 4 0 1 -6 -6 -13 -7 -8
-20 -12 -30 -9 -19 4 -26 -14 -8 -20 19 -6 -12 -66 -36 -71 -28 -5 -37 13 -28
59 4 24 12 34 25 34 11 0 19 5 19 11 0 7 -9 9 -21 6 -17 -4 -19 -3 -10 6 21
21 11 64 -26 116 -21 28 -44 49 -50 46 -7 -2 -13 2 -13 9 0 8 -3 16 -7 19 -5
2 -2 2 4 1 7 -2 21 6 32 17 18 20 18 20 31 -10 7 -17 9 -38 6 -48 -4 -10 -4
-14 0 -11 4 4 16 1 28 -7 25 -18 36 -19 36 -3 0 6 -3 9 -6 5 -9 -9 -34 19 -39
45 -3 12 1 26 8 30 8 5 6 8 -8 9 -18 1 -17 2 3 7 31 9 24 27 -9 24 -14 -2 -32
4 -39 13 -12 15 -11 18 5 28 19 10 19 10 0 18 -15 6 -12 8 13 6 19 -1 36 -5
38 -9 9 -14 22 -8 27 12 4 16 0 20 -20 20 -16 0 -22 4 -18 13 4 6 1 5 -7 -3
-16 -19 -69 -15 -85 7 -6 8 -16 12 -22 9 -6 -4 -11 14 -14 46 -3 46 -4 44 -4
-14 0 -44 5 -72 13 -79 7 -6 10 -18 7 -26 -5 -12 -2 -15 9 -10 20 7 31 -16 15
-33 -9 -10 -9 -14 1 -17 6 -3 12 -9 12 -14 0 -14 -28 -11 -33 4 -4 9 -8 9 -15
-2 -6 -9 -29 -13 -66 -13 -30 0 -55 -3 -55 -6 3 -22 -3 -32 -20 -32 -21 0 -45
23 -34 33 3 4 1 7 -7 7 -10 0 -10 3 0 15 7 8 29 16 49 16 23 1 28 3 14 6 -13
2 -23 12 -23 21 -1 15 -2 15 -11 -1 -9 -15 -19 -17 -57 -12 -26 3 -53 13 -59
22 -8 10 -13 12 -13 5 0 -21 -75 -14 -96 9 -14 16 -27 20 -51 16 -19 -3 -33
-1 -33 4 0 6 -5 7 -10 4 -6 -4 -8 -10 -6 -14 3 -4 -8 -8 -24 -9 -17 0 -30 3
-30 8 0 5 -7 7 -15 4 -8 -4 -15 -1 -15 6 0 7 -6 10 -14 7 -11 -5 -11 1 2 32
14 32 20 36 44 33 16 -3 28 0 28 7 0 6 7 11 15 11 28 0 15 30 -20 47 -44 21
-47 49 -5 55 21 3 34 0 41 -11 10 -15 10 -15 6 0 -3 9 -1 22 4 30 8 12 10 12
18 -1 7 -9 6 -17 0 -21 -9 -5 11 -19 27 -19 10 0 -3 27 -24 48 -13 12 -20 22
-16 22 4 0 -2 8 -12 18 -11 9 -18 25 -16 35 2 9 -2 17 -8 17 -6 0 -9 -4 -5 -9
3 -5 1 -12 -5 -16 -5 -3 -10 -11 -10 -17 0 -6 3 -8 7 -5 8 8 33 -11 33 -25 0
-7 -4 -7 -12 0 -7 6 -15 10 -18 11 -3 0 -12 2 -20 5 -8 2 -32 7 -53 11 -27 4
-41 13 -49 31 -10 21 -16 24 -40 19 -21 -5 -28 -3 -28 8 0 8 -9 17 -20 20 -12
3 -20 14 -20 26 0 22 9 26 26 14 5 -5 4 -2 -2 6 -14 15 -34 7 -34 -15 0 -19
-12 -18 -49 4 -17 9 -31 25 -31 34 0 27 11 48 26 48 8 0 14 4 14 8 0 5 23 19
51 32 28 13 53 28 56 33 3 4 -27 -8 -66 -28 -66 -33 -73 -34 -93 -21 -18 13
-21 24 -20 63 2 27 -4 60 -12 76 -14 25 -14 27 6 27 27 0 19 9 -13 15 -13 3
-37 7 -53 11 -19 4 -31 2 -37 -7 -7 -12 -9 -11 -9 1 0 13 -1 13 -10 0 -7 -11
-10 -11 -10 -2 0 7 -4 10 -10 7 -5 -3 -10 -1 -10 6 0 7 -3 9 -7 6 -3 -4 -13
-2 -20 5 -11 9 -16 9 -22 0 -7 -11 -56 -11 -68 1 -3 4 -17 7 -30 7 -15 0 -23
6 -23 18 0 14 -2 15 -10 2 -8 -12 -10 -12 -11 5 l0 20 -9 -20 -9 -20 0 20 c-1
17 -3 17 -11 5 -9 -13 -10 -13 -10 0 0 13 -1 13 -10 0 -8 -12 -10 -12 -10 5 0
17 -2 17 -10 5 -5 -8 -10 -10 -10 -5 0 6 -19 11 -43 12 -23 2 -36 -1 -30 -5z"/>
<path d="M1277 1654 c-3 -3 -3 -12 0 -20 9 -24 -59 -153 -82 -156 -12 -2 -19
-9 -17 -19 4 -30 -261 -103 -304 -84 -11 4 -28 7 -40 6 -13 -1 -34 13 -57 38
-20 22 -54 52 -76 65 -27 17 -39 32 -38 46 2 28 26 25 60 -7 19 -19 26 -22 21
-10 -5 15 -3 16 21 7 14 -5 36 -10 48 -9 17 1 15 3 -8 9 -73 20 -90 27 -90 37
0 20 -14 26 -30 13 -8 -7 -15 -9 -15 -6 0 4 -9 2 -19 -4 -13 -7 -22 -7 -26 0
-3 5 -22 10 -41 10 -21 0 -33 4 -29 10 11 19 -7 10 -26 -12 -21 -23 -27 -22
-32 8 -2 17 -8 24 -22 24 -3 0 1 -16 9 -35 13 -31 13 -36 -2 -45 -15 -8 -14
-9 6 -10 13 0 21 4 17 9 -3 5 -1 12 4 15 5 4 12 -2 14 -11 4 -15 5 -15 6 2 1
12 4 16 9 9 4 -6 26 -14 50 -18 34 -5 42 -4 36 6 -3 7 4 3 17 -9 13 -12 36
-33 51 -46 15 -14 29 -23 31 -21 2 2 18 -14 36 -36 17 -22 38 -40 46 -40 8 0
15 -9 15 -20 0 -16 6 -19 37 -18 21 1 32 3 25 6 -20 6 -14 21 7 15 10 -3 45 1
78 8 32 7 63 14 70 14 6 0 15 4 19 8 4 4 13 7 21 7 7 0 36 11 65 25 28 14 60
25 70 25 11 0 18 7 18 20 0 11 4 28 9 38 5 9 14 29 21 44 7 15 17 25 22 22 4
-3 8 18 8 45 0 51 -1 56 -13 45z"/>
<path d="M1128 1216 c-43 -19 -78 -57 -78 -85 1 -22 2 -24 13 -10 16 21 97 68
137 79 26 7 30 7 20 -4 -6 -8 -9 -19 -8 -26 2 -7 -22 -30 -52 -51 -30 -21 -63
-48 -72 -59 -21 -26 -72 -34 -92 -14 -8 7 -21 14 -29 14 -8 0 -17 6 -20 14 -3
8 -15 12 -31 9 -17 -4 -23 -10 -19 -21 4 -10 2 -13 -5 -8 -6 4 -22 1 -34 -5
-13 -7 -59 -13 -103 -14 -63 -2 -81 -5 -83 -18 -2 -8 2 -18 7 -22 6 -3 11 -1
11 4 0 7 26 11 64 11 35 0 80 7 99 15 45 19 116 19 140 0 11 -7 26 -11 35 -7
15 5 15 4 3 -11 -11 -15 -11 -17 2 -17 9 0 18 8 20 18 4 15 5 15 6 -1 1 -25
25 -16 29 12 2 12 14 26 28 32 14 5 23 13 20 17 -2 4 18 23 45 41 27 19 49 40
49 48 0 7 7 13 15 13 9 0 15 9 15 24 0 39 -41 39 -118 0 -81 -40 -94 -37 -20
5 53 31 56 40 6 17z"/>
<path d="M1349 1163 c-17 -19 -90 -54 -101 -47 -4 3 -8 -3 -8 -13 0 -18 -29
-39 -145 -107 -54 -31 -176 -125 -238 -182 l-38 -35 -42 24 c-54 32 -66 51
-49 77 17 28 5 43 -29 36 -16 -3 -28 -2 -27 2 1 4 -2 32 -7 62 -4 30 -9 58 -9
62 -1 3 -4 10 -8 14 -4 4 -3 13 3 20 8 9 5 11 -10 7 -14 -4 -21 -1 -21 9 0 9
-8 14 -23 12 -12 -1 -30 -3 -39 -3 -13 -1 -18 -9 -18 -31 0 -22 5 -30 18 -30
14 0 15 2 2 10 -23 15 16 25 46 12 33 -16 31 -34 -3 -27 -26 5 -26 4 3 -7 17
-7 29 -19 27 -25 -3 -7 0 -13 6 -13 6 0 11 -4 11 -10 0 -5 -9 -10 -20 -10 -11
0 -20 -4 -20 -9 0 -17 20 -23 34 -12 11 9 12 4 6 -29 -7 -39 -20 -66 -20 -42
0 7 -5 12 -11 12 -6 0 -8 -7 -5 -16 5 -13 3 -14 -6 -7 -7 6 -28 9 -45 7 -23
-3 -33 0 -33 10 0 8 -10 14 -24 14 -18 0 -23 -6 -23 -24 0 -16 5 -24 16 -24
20 0 54 -37 46 -51 -4 -5 -3 -9 2 -8 22 4 23 -3 4 -18 -22 -18 -22 -18 15 -21
21 -1 43 -7 50 -13 7 -6 17 -8 22 -5 14 8 3 -96 -11 -113 -9 -12 -9 -13 1 -7
9 5 12 -4 12 -36 0 -32 -3 -39 -10 -28 -9 13 -11 13 -20 0 -8 -12 -10 -12 -10
5 0 17 -2 17 -10 5 -16 -24 -11 -39 10 -35 13 2 20 -2 20 -11 0 -8 7 -14 16
-14 14 0 16 -8 10 -57 -4 -32 -12 -61 -19 -65 -9 -6 -9 -8 1 -8 6 0 12 -12 12
-26 0 -32 22 -27 30 7 4 16 15 26 35 30 l30 7 -27 1 c-31 1 -47 19 -27 32 10
6 11 11 3 17 -6 4 -12 32 -12 62 -1 30 -4 68 -8 84 -5 19 -2 31 7 37 10 6 10
9 2 9 -15 0 -17 38 -4 59 8 12 12 12 25 2 12 -10 23 -11 48 -2 38 13 70 40 62
52 -3 5 4 9 15 9 12 0 21 5 21 10 0 27 132 133 174 140 21 4 30 10 28 21 -1
10 15 27 39 43 23 16 38 23 35 17 -4 -6 -2 -11 3 -11 6 0 11 7 11 15 0 8 4 15
10 15 14 0 108 69 121 88 10 15 10 15 5 0 -3 -10 -2 -18 3 -18 5 0 11 -9 14
-20 3 -11 1 -20 -4 -20 -5 0 -4 -9 3 -20 7 -10 15 -16 18 -11 3 4 19 0 35 -10
l30 -19 -35 -1 c-27 0 -40 -7 -59 -32 l-25 -32 30 28 c25 23 39 27 85 27 60 0
109 -17 109 -38 0 -8 9 -12 23 -10 12 2 20 6 17 11 -11 16 51 36 98 31 26 -3
58 -1 72 5 20 8 7 10 -62 10 -48 1 -89 -2 -91 -7 -7 -11 -59 -7 -84 6 -12 7
-31 12 -43 12 -11 0 -23 7 -26 15 -4 8 -10 12 -15 9 -5 -3 -19 5 -31 16 l-23
22 35 -3 c55 -3 90 0 90 9 0 5 -25 8 -56 7 -35 -2 -60 2 -68 11 -8 7 -16 10
-20 7 -3 -4 -6 0 -6 8 0 13 58 69 71 69 4 0 9 7 13 15 7 20 2 19 -15 -2z"/>
<path d="M3456 950 c15 -52 12 -80 -8 -91 -11 -6 -29 -9 -39 -6 -10 3 -17 1
-13 -4 3 -5 -1 -9 -8 -9 -8 0 -9 -3 -3 -8 17 -12 35 -51 35 -76 0 -27 -24 -41
-47 -27 -11 6 -23 0 -42 -18 -28 -27 -39 -71 -18 -71 7 0 13 10 14 21 1 12 7
27 12 32 8 8 11 -1 11 -28 0 -56 13 -74 40 -57 26 16 38 9 35 -20 -1 -14 0
-15 2 -5 3 11 10 16 19 13 8 -3 14 -1 14 5 0 6 5 7 10 4 6 -3 10 -2 10 4 0 5
10 10 23 10 12 0 32 1 45 1 13 0 21 4 18 9 -3 5 -24 6 -47 4 -28 -4 -44 -1
-50 8 -7 11 -9 11 -9 1 0 -8 -8 -10 -26 -6 -18 5 -29 1 -38 -11 -20 -28 -36
-9 -36 43 0 30 3 42 9 33 7 -11 14 -10 37 5 15 11 25 14 22 8 -4 -6 -4 -24 1
-40 l8 -29 7 33 c4 17 12 32 17 32 6 0 7 -4 4 -10 -3 -5 -1 -10 4 -10 6 0 11
7 11 15 0 8 5 15 11 15 6 0 8 -7 5 -16 -3 -9 -6 -18 -6 -20 0 -2 -7 -4 -15 -4
-8 0 -15 -5 -15 -10 0 -19 34 6 53 38 16 29 16 30 0 26 -10 -2 -24 0 -32 5
-12 8 -12 12 -2 25 10 11 26 15 56 12 37 -3 44 0 49 18 10 36 7 44 -14 39 -11
-3 -20 -10 -20 -15 0 -6 7 -8 15 -4 8 3 15 1 15 -4 0 -10 -27 -14 -62 -11 -9
1 -19 -3 -23 -10 -6 -8 -10 -7 -16 2 -7 11 -9 10 -9 -5 0 -16 -4 -14 -22 9
-21 27 -21 28 -2 42 13 10 38 13 77 11 31 -2 57 1 57 6 0 5 6 4 13 -3 10 -8
17 -7 25 1 21 21 13 25 -42 23 -65 -2 -105 10 -88 27 15 15 16 32 2 23 -5 -3
-10 -2 -10 2 0 5 -7 18 -16 29 -14 18 -15 18 -8 -6z"/>
<path d="M3003 893 c4 -3 1 -13 -6 -21 -9 -12 -9 -16 0 -19 8 -3 9 -12 1 -34
-8 -24 -16 -29 -44 -30 -47 -2 -51 -3 -61 -13 -4 -5 9 -7 33 -3 58 7 64 1 53
-56 -11 -59 -71 -173 -89 -169 -7 2 -17 -3 -21 -10 -6 -9 -12 -8 -26 5 -11 9
-37 20 -59 25 -21 4 -38 12 -36 17 2 6 11 8 20 7 9 -2 14 -1 10 3 -3 4 -18 8
-32 9 -23 3 -26 0 -23 -22 3 -21 14 -29 73 -49 102 -36 124 -39 124 -18 0 9
12 40 26 69 34 68 54 125 54 158 0 15 4 29 8 32 5 3 7 19 6 35 -3 43 9 46 48
12 19 -16 46 -33 61 -36 15 -4 25 -11 22 -15 -2 -4 7 -7 21 -7 29 0 43 22 25
40 -9 9 -14 8 -21 -3 -7 -10 -10 -11 -10 -2 0 8 -8 10 -24 6 -27 -6 -71 28
-77 60 -5 25 -29 33 -30 9 0 -15 -2 -14 -9 5 -5 12 -13 22 -16 22 -4 0 -4 -3
-1 -7z"/>
</g>
</svg>
